<svg xmlns="http://www.w3.org/2000/svg" viewBox="0 0 457 136.07"><defs><style>.a{fill:#fff;}</style></defs><title>w3f_logo</title><path class="a" d="M240.55,31.68l-43.26,133.4h-40.4L131.34,83.9l-26.68,81.19H64.26L21,31.68H59.88l26.87,85.19L115,31.68h34.69l26.87,86,28-86Z" transform="translate(-21 -31.68)"/><path class="a" d="M345.45,98.67q8.86,10.2,8.86,24.68a40.25,40.25,0,0,1-6.38,21.92q-6.39,10.1-19.44,16.29t-32.3,6.19a115.46,115.46,0,0,1-27.92-3.43,82.7,82.7,0,0,1-23.92-9.72l13.72-28.4a61.52,61.52,0,0,0,17.63,8.2A68.94,68.94,0,0,0,295,137.26q9.73,0,15.44-3.62a11.5,11.5,0,0,0,5.72-10.29q0-13-20.39-13H280V86.57l23.82-25.73h-52.6V31.68h96.43V55.31L320,85Q336.6,88.47,345.45,98.67Z" transform="translate(-21 -31.68)"/><path class="a" d="M411.11,60.84V90.19H470v29.16H411.11v45.74H373.37V31.68H478V60.84Z" transform="translate(-21 -31.68)"/></svg>